<svg id="after-avenue-logo" data-name="After Avenue" xmlns="http://www.w3.org/2000/svg" viewBox="0 0 1743.53 237.94">
  <g>
    <path fill="currentColor" strokeWidth="0" d="m270.09,196.04v-87.32l1.36-.87s-.82.41-1.29.64c.24-.12.6-.3,1.29-.64,2.98-1.48,22.2-17.34,28.82-22.84v-1.86h-30.19v-32.94c0-12.79,1.29-28.8,5.76-38.7,1.93,0,3.84.31,5.44.96,14.39,5.42,19.51,31.64,22.38,47.97,13.75-10.55,27.19-31.67,31.03-47.66-13.75-9.61-28.79-12.79-49.9-12.79-37.1,0-66.2,29.74-66.2,75.47v9.58c-.08.19-.13.38-.19.57-3.43,1.9-22.12,17.32-28.63,22.73v1.86h28.82v89.03c0,12.53-2.72,19.74-10.69,27.22-8.69-7.96-12.65-19.33-17.62-33.94L127.62,9.58l-54.05,15.68c1.6,2.55,2.88,12.16,2.88,16.61,0,6.09-2.88,16.64-4.8,22.08l-32.93,90.5-9.28,24.95c-9.6,25.91-14.71,37.42-29.43,49.27h65.89c-12.47-9.92-16.63-24.32-16.63-36.8,0-7.34.64-16.3,2.57-24.61,13.42-.65,27.5-1.28,41.57-1.28,11.19,0,22.07.31,32.62.94l6.39,17.6c7.36,20.16,8.32,28.46,3.53,44.14h153.35c-12.8-8.33-19.19-15.68-19.19-32.63Zm-176.69-43.8c-12.47,0-24.95-.34-37.1-.96l31.02-91.8,33.27,92.11c-8.96.65-17.92.65-27.19.65Z"/>
    <path fill="currentColor" strokeWidth="0" d="m394.99,200.52c-16.95,0-23.03-9.92-23.03-26.22v-63.33c19.19,0,37.74-6.07,54.37-22.06v-1.61c-16.95-.94-44.14-3.18-55.01-7.66v-38.07h-1.6c-26.22,23.02-53.83,47.1-77.07,66.85v1.93h27.81v69.71c0,39.35,17.92,53.72,50.22,53.72,20.14,0,41.25-9.9,48.61-39.32l-.64-.65c-5.12,3.52-13.75,6.72-23.66,6.72Z"/>
    <path fill="currentColor" strokeWidth="0" d="m524.47,198.93c-27.18,0-47.01-18.88-51.17-48.62,23.35-.65,65.57-3.52,82.51-14.4-3.19-37.08-32.29-51.8-61.41-51.8-36.77,0-71.95,28.46-71.95,78.98,0,47.01,31.67,70.68,70.04,70.68,24.62,0,51.81-8.31,66.21-42.53l-.33-.65c-7.03,4.17-19.83,8.33-33.91,8.33Zm-52.12-60.78c0-23.67,3.52-37.42,7.36-43.49,1.59.31,3.19.96,4.79,1.59,9.27,3.85,20.14,15.36,21.75,35.83-9.27,5.44-20.78,9.27-33.58,12.47-.31-1.93-.31-4.17-.31-6.41Z"/>
    <path fill="currentColor" strokeWidth="0" d="m669.07,84.12c-14.02.11-26.39,9.23-31.48,22.3l-8.13,20.88v-43.52l-63.32,22.4c9.91,8.31,13.11,15.68,13.11,29.43v63.65c0,13.75-3.2,21.09-13.11,29.43h77.72c-9.92-8.33-13.11-15.68-13.11-29.43v-64.92c3.19-1.93,8.63-3.85,15.35-3.85s14.15,1.64,19.59,5.47c17.58-47.31,2.32-6.23,18.25-49.06-4.11-1.99-10.34-2.76-14.49-2.76-.12,0-.25,0-.37,0Z"/>
    <path fill="currentColor" strokeWidth="0" d="m919.21,192.53l-62.68-182.94-54.05,15.68c1.6,2.55,2.88,12.16,2.88,16.61,0,6.09-2.88,16.64-4.8,22.08l-32.93,90.5-9.28,24.95c-9.6,25.91-14.71,37.42-29.43,49.27h65.89c-12.47-9.92-16.63-24.32-16.63-36.8,0-7.34.64-16.3,2.57-24.61,13.42-.65,27.5-1.28,41.58-1.28,11.18,0,22.07.31,32.62.94l6.39,17.6c7.36,20.16,8.32,28.46,3.53,44.14h74.52c-10.56-7.99-14.71-20.16-20.16-36.15Zm-96.9-40.29c-12.47,0-24.95-.34-37.1-.96l31.02-91.8,33.27,92.11c-8.96.65-17.92.65-27.19.65Z"/>
    <path fill="currentColor" strokeWidth="0" d="m998.06,87.94c13.75,7.68,21.11,21.74,21.11,36.46,0,7.68-1.6,18.23-6.39,29.12l-8.96,19.5-22.38-56.3c-4.8-11.82-5.44-19.19-5.44-28.78h-73.88c14.08,10.23,17.27,17.27,27.5,39.01l52.77,110.99,45.1-93.07c11.19-23.33,25.59-47.66,34.86-56.93h-64.29Z"/>
    <path fill="currentColor" strokeWidth="0" d="m1157.72,198.93c-27.18,0-47.01-18.88-51.17-48.62,23.35-.65,65.57-3.52,82.53-14.4-3.2-37.08-32.3-51.8-61.41-51.8-36.78,0-71.97,28.46-71.97,78.98,0,47.01,31.67,70.68,70.04,70.68,24.62,0,51.81-8.31,66.21-42.53l-.33-.65c-7.03,4.17-19.83,8.33-33.91,8.33Zm-52.12-60.78c0-23.67,3.52-37.42,7.36-43.49,1.59.31,3.19.96,4.79,1.59,9.27,3.85,20.16,15.36,21.74,35.83-9.27,5.44-20.78,9.27-33.58,12.47-.31-1.93-.31-4.17-.31-6.41Z"/>
    <path fill="currentColor" strokeWidth="0" d="m1355.21,199.25v-71.64c0-31.35-19.19-43.49-42.85-43.49l-46.38,22.71-.64-22.4-63.65,22.4c9.92,8.31,13.11,15.65,13.11,29.4v63.02c0,13.75-3.19,21.09-13.11,29.43h77.72c-9.92-8.33-13.11-15.68-13.11-29.43v-87.94c1.28-.34,4.79-.65,6.39-.65,17.27,0,31.03,9.27,31.03,33.91v54.69c0,13.75-3.2,21.09-13.13,29.43h77.72c-9.91-8.33-13.11-15.68-13.11-29.43Z"/>
    <path fill="currentColor" strokeWidth="0" d="m1525.31,185.5v-101.72l-64.6,22.4c9.91,8.31,13.11,15.68,13.11,29.43v70.03c-1.29.34-2.88.34-4.48.34-24.64,0-31.03-14.4-31.03-33.59v-88.26l-63.65,22.37c9.92,8.33,12.16,16.64,12.16,29.43v47.66c0,39.35,21.75,50.21,48.29,50.21l39.34-23.02c2.24,9.27,8.63,17.27,17.27,22.71l46.69-18.54c-9.91-8.33-13.11-15.68-13.11-29.43Z"/>
    <path fill="currentColor" strokeWidth="0" d="m1654.09,198.93c-27.18,0-47.01-18.88-51.17-48.62,23.35-.65,65.57-3.52,82.51-14.4-3.19-37.08-32.29-51.8-61.41-51.8-36.77,0-71.95,28.46-71.95,78.98,0,47.01,31.67,70.68,70.04,70.68,24.62,0,51.81-8.31,66.21-42.53l-.33-.65c-7.03,4.17-19.83,8.33-33.91,8.33Zm-52.12-60.78c0-23.67,3.52-37.42,7.36-43.49,1.59.31,3.19.96,4.79,1.59,9.27,3.85,20.14,15.36,21.75,35.83-9.27,5.44-20.78,9.27-33.58,12.47-.31-1.93-.31-4.17-.31-6.41Z"/>
  </g>
  <g>
    <path fill="currentColor" strokeWidth="0" d="m1721.67,220.29h3.02v8.38h2.41v-8.38h3.02v-2.23h-8.45v2.23Z"/>
    <path fill="currentColor" strokeWidth="0" d="m1740.53,218.06c-.64,1.49-1.13,2.61-1.45,3.36-.32.75-.81,1.89-1.48,3.42h-.03c-.65-1.49-1.13-2.61-1.45-3.36-.32-.75-.81-1.89-1.48-3.42h-3.01v10.62h2.45v-6.14h.04c.39.92.68,1.61.88,2.07.19.46.5,1.17.91,2.11.18.44.32.76.41.97.09.21.23.54.42.99h1.69c.14-.32.27-.64.41-.95.14-.32.27-.64.39-.95.31-.7.61-1.4.91-2.11.3-.71.6-1.42.9-2.12h.04v6.14h2.45v-10.62h-3.01Z"/>
  </g>
</svg>