<svg viewBox="0 0 1743.5 237.9" xmlns="http://www.w3.org/2000/svg"><path fill="currentColor" d="m270.1 196v-87.3l1.4-.9s-.8.4-1.3.6c.2-.1.6-.3 1.3-.6 3-1.5 22.2-17.3 28.8-22.8v-1.9h-30.2v-32.9c0-12.8 1.3-28.8 5.8-38.7 1.9 0 3.8.3 5.4 1 14.4 5.4 19.5 31.6 22.4 48 13.8-10.5 27.2-31.7 31-47.7-13.8-9.6-28.8-12.8-49.9-12.8-37.1 0-66.2 29.7-66.2 75.5v9.6c0 .2-.1.4-.2.6-3.4 1.9-22.1 17.3-28.6 22.7v1.9h28.8v89c0 12.5-2.7 19.7-10.7 27.2-8.7-8-12.6-19.3-17.6-33.9l-62.7-183-54 15.7c1.6 2.5 2.9 12.2 2.9 16.6s-2.9 16.6-4.8 22.1l-32.9 90.5-9.3 24.9c-9.7 25.9-14.8 37.4-29.5 49.3h65.9c-12.5-9.9-16.6-24.3-16.6-36.8s.6-16.3 2.6-24.6c13.4-.6 27.5-1.3 41.6-1.3s22.1.3 32.6.9l6.4 17.6c7.4 20.2 8.3 28.5 3.5 44.1h153.3c-12.8-8.3-19.2-15.7-19.2-32.6zm-176.7-43.8c-12.5 0-24.9-.3-37.1-1l31-91.8 33.3 92.1c-9 .6-17.9.6-27.2.6z"/><path fill="currentColor" d="m395 200.5c-17 0-23-9.9-23-26.2v-63.3c19.2 0 37.7-6.1 54.4-22.1v-1.6c-17-.9-44.1-3.2-55-7.7v-38.1h-1.6c-26.2 23-53.8 47.1-77.1 66.8v1.9h27.8v69.7c0 39.4 17.9 53.7 50.2 53.7s41.2-9.9 48.6-39.3l-.6-.6c-5.1 3.5-13.8 6.7-23.7 6.7z"/><path fill="currentColor" d="m524.5 198.9c-27.2 0-47-18.9-51.2-48.6 23.4-.6 65.6-3.5 82.5-14.4-3.2-37.1-32.3-51.8-61.4-51.8s-71.9 28.5-71.9 79 31.7 70.7 70 70.7 51.8-8.3 66.2-42.5l-.3-.6c-7 4.2-19.8 8.3-33.9 8.3zm-52.2-60.8c0-23.7 3.5-37.4 7.4-43.5 1.6.3 3.2 1 4.8 1.6 9.3 3.8 20.1 15.4 21.8 35.8-9.3 5.4-20.8 9.3-33.6 12.5-.3-1.9-.3-4.2-.3-6.4z"/><path fill="currentColor" d="m669.1 84.1c-14 .1-26.4 9.2-31.5 22.3l-8.1 20.9v-43.5l-63.3 22.4c9.9 8.3 13.1 15.7 13.1 29.4v63.7c0 13.8-3.2 21.1-13.1 29.4h77.7c-9.9-8.3-13.1-15.7-13.1-29.4v-64.9c3.2-1.9 8.6-3.9 15.3-3.9s14.2 1.6 19.6 5.5c17.6-47.3 2.3-6.2 18.2-49.1-4.1-2-10.3-2.8-14.5-2.8h-.4z"/><path fill="currentColor" d="m919.2 192.5-62.7-182.9-54 15.7c1.6 2.5 2.9 12.2 2.9 16.6s-2.9 16.6-4.8 22.1l-32.9 90.5-9.3 24.9c-9.6 25.9-14.7 37.4-29.4 49.3h65.9c-12.5-9.9-16.6-24.3-16.6-36.8s.6-16.3 2.6-24.6c13.4-.6 27.5-1.3 41.6-1.3s22.1.3 32.6.9l6.4 17.6c7.4 20.2 8.3 28.5 3.5 44.1h74.5c-10.6-8-14.7-20.2-20.2-36.2zm-96.9-40.3c-12.5 0-25-.3-37.1-1l31-91.8 33.3 92.1c-9 .6-17.9.6-27.2.6z"/><path fill="currentColor" d="m998.1 87.9c13.8 7.7 21.1 21.7 21.1 36.5s-1.6 18.2-6.4 29.1l-9 19.5-22.4-56.3c-4.8-11.8-5.4-19.2-5.4-28.8h-73.9c14.1 10.2 17.3 17.3 27.5 39l52.8 111 45.1-93.1c11.2-23.3 25.6-47.7 34.9-56.9z"/><path fill="currentColor" d="m1157.7 198.9c-27.2 0-47-18.9-51.2-48.6 23.3-.6 65.6-3.5 82.5-14.4-3.2-37.1-32.3-51.8-61.4-51.8s-72 28.5-72 79 31.7 70.7 70 70.7 51.8-8.3 66.2-42.5l-.3-.6c-7 4.2-19.8 8.3-33.9 8.3zm-52.1-60.8c0-23.7 3.5-37.4 7.4-43.5 1.6.3 3.2 1 4.8 1.6 9.3 3.8 20.2 15.4 21.7 35.8-9.3 5.4-20.8 9.3-33.6 12.5-.3-1.9-.3-4.2-.3-6.4z"/><path fill="currentColor" d="m1355.2 199.2v-71.6c0-31.3-19.2-43.5-42.8-43.5l-46.4 22.7-.6-22.4-63.7 22.4c9.9 8.3 13.1 15.7 13.1 29.4v63c0 13.8-3.2 21.1-13.1 29.4h77.7c-9.9-8.3-13.1-15.7-13.1-29.4v-87.9c1.3-.3 4.8-.7 6.4-.7 17.3 0 31 9.3 31 33.9v54.7c0 13.8-3.2 21.1-13.1 29.4h77.7c-9.9-8.3-13.1-15.7-13.1-29.4z"/><path fill="currentColor" d="m1525.3 185.5v-101.7l-64.6 22.4c9.9 8.3 13.1 15.7 13.1 29.4v70c-1.3.3-2.9.3-4.5.3-24.6 0-31-14.4-31-33.6v-88.3l-63.7 22.4c9.9 8.3 12.2 16.6 12.2 29.4v47.7c0 39.4 21.8 50.2 48.3 50.2l39.3-23c2.2 9.3 8.6 17.3 17.3 22.7l46.7-18.5c-9.9-8.3-13.1-15.7-13.1-29.4z"/><path fill="currentColor" d="m1654.1 198.9c-27.2 0-47-18.9-51.2-48.6 23.3-.6 65.6-3.5 82.5-14.4-3.2-37.1-32.3-51.8-61.4-51.8s-71.9 28.5-71.9 79 31.7 70.7 70 70.7 51.8-8.3 66.2-42.5l-.3-.6c-7 4.2-19.8 8.3-33.9 8.3zm-52.1-60.8c0-23.7 3.5-37.4 7.4-43.5 1.6.3 3.2 1 4.8 1.6 9.3 3.8 20.1 15.4 21.8 35.8-9.3 5.4-20.8 9.3-33.6 12.5-.3-1.9-.3-4.2-.3-6.4z"/></svg>