<svg id="AfterAvenueBrandmark" data-name="After Avenue Brandmark" xmlns="http://www.w3.org/2000/svg" viewBox="0 0 472.95 509.11">
  <path fill="currentColor" strokeWidth="0" d="m472.95,195.95L264.93,48.88c-3.7-2.62-8.13-4.03-12.67-4.03h-5.67c3.7-6.27,5.23-13.98,3.32-22.14-2.61-11.18-11.83-20.02-23.12-22.16-18.99-3.6-35.58,10.87-35.58,29.21,0,5.52,1.53,10.67,4.14,15.09h-4.12c-5.49,0-10.78,2.06-14.83,5.77L0,212.42l5.92,19.31h28.86c5.25,0,9.8,3.67,10.9,8.81l52.32,243.7c1.35,6.27,6.31,11.13,12.61,12.34l63.83,12.24c1.09.21,2.19.3,3.29.28l182.17-3.24c7.55-.13,13.98-5.54,15.41-12.96l51.74-268.61c1.01-5.25,5.6-9.04,10.95-9.04h29s5.92-19.31,5.92-19.31ZM132.8,455.94l-46.06-214.54c-.69-3.22,1.27-6.41,4.45-7.26l42.54-11.26c3.61-.96,7.24,1.5,7.7,5.21l28.39,230.19c.54,4.39-3.34,8.04-7.69,7.23l-24.13-4.51c-2.59-.48-4.64-2.48-5.19-5.06Zm199.74,10.44l-113.16,2.01c-4.57.08-8.45-3.3-9.01-7.83l-29.06-235.65c-.58-4.71,3.09-8.86,7.83-8.86l189.28,3c4.96,0,8.69,4.52,7.75,9.38l-45.02,230.71c-.8,4.14-4.39,7.16-8.6,7.23Z"/>
  <g>
    <path fill="currentColor" strokeWidth="0" d="m398.92,486.48h3.02v8.38h2.41v-8.38h3.02v-2.23h-8.45v2.23Z"/>
    <path fill="currentColor" strokeWidth="0" d="m417.78,484.25c-.64,1.49-1.13,2.61-1.45,3.36-.32.75-.81,1.89-1.48,3.42h-.03c-.65-1.49-1.13-2.61-1.45-3.36-.32-.75-.81-1.89-1.48-3.42h-3.01v10.62h2.45v-6.14h.04c.39.92.68,1.61.88,2.07.19.46.5,1.17.91,2.11.18.44.32.76.41.97.09.21.23.54.42.99h1.69c.14-.32.27-.64.41-.95.14-.32.27-.64.39-.95.31-.7.61-1.4.91-2.11.3-.71.6-1.42.9-2.12h.04v6.14h2.45v-10.62h-3.01Z"/>
  </g>
</svg>