<?xml version="1.0" encoding="UTF-8"?><svg xmlns="http://www.w3.org/2000/svg" viewBox="0 0 923.08 164.68"><g><path fill="currentColor" d="M264.32,70.46c-10.01,1.25-16.26,4.17-20.43,8.34-3.34,3.33-5,7.5-5,11.67,0,7.5,5.42,12.93,12.09,12.93,4.17,0,8.34-1.67,10.42-4.17.83-.83,1.67-2.5,1.67-4.17l1.25-24.6h0ZM281.41,115.07c-8.34,0-15.84-5.42-17.93-13.76-4.17,7.5-12.09,13.76-22.51,13.76-11.67,0-21.68-9.17-21.68-20.84,0-16.26,15.43-27.93,44.61-28.35v-4.17c.42-11.67-6.25-18.76-17.93-18.76-8.34,0-17.09,5.42-22.93,12.51-.42.42-2.92-2.08-2.92-2.5,7.5-15.01,21.26-23.35,35.44-23.35,16.26,0,27.93,11.67,27.51,31.27l-1.25,32.52c0,7.5,3.33,10.84,7.09,10.84,4.17,0,7.09-3.34,8.75-7.92,0-.42,2.5.83,2.5,1.25,0,11.26-8.34,17.51-18.76,17.51h0ZM385.22,112.15h-22.1c-.42,0-.42-4.17,0-4.17,9.17-1.25,10.42-2.09,10.42-20.01v-25.01c0-11.26-6.67-19.18-16.26-19.18-6.67,0-12.92,3.34-15.84,7.5-2.08,2.5-3.34,7.09-3.34,12.92v23.76c0,17.93,2.08,18.76,11.26,20.01,0,0,.42,4.17,0,4.17h-42.53c-.42,0-.42-4.17-.42-4.17,10.01-1.67,11.26-2.09,11.26-20.01v-30.43c0-18.34-2.09-19.18-12.93-20.84-.83,0-.42-4.17,0-4.17h31.69v18.34h.42c7.09-13.34,17.93-21.26,31.27-21.26,15.01,0,26.68,11.67,26.68,30.85v27.1c0,17.93,1.67,18.76,11.67,20.01.83,0,.42,4.17,0,4.17-6.25.42-15.43.42-21.26.42M452.34,115.07c-25.01,0-41.27-19.59-41.27-42.11,0-24.18,16.26-43.36,42.94-43.36,12.51,0,18.76,4.17,22.51,4.17,1.67,0,3.33-1.25,4.17-3.34,0-.42,5-.42,5,0v30.02c0,.42-5,.42-5,0-6.67-13.76-15.84-25.43-26.68-25.43-13.34,0-21.26,14.17-21.26,33.77,0,20.84,10.84,34.6,25.85,34.6,10.01,0,21.26-7.09,25.85-15.01.42-.83,3.75.83,3.75,1.67-5.42,14.17-19.6,25.01-35.85,25.01M553.65,62.12v-5.84c0-12.92-6.25-20.43-14.17-20.43-10.01,0-17.51,10.84-19.18,26.27h33.35,0ZM520.3,71.71c0,17.93,10.01,31.69,27.1,31.69,10.01,0,20.01-6.67,25.43-15.01,0-.42,3.33.83,3.33,1.67-4.58,14.17-19.59,25.01-36.27,25.01-26.26,0-41.69-19.18-41.69-42.11s16.26-43.36,43.78-43.36c20.84,0,34.6,13.76,35.85,32.52v5.84h-56.7c-.83.83-.83,2.92-.83,3.75h0ZM619.53,115.07c-12.93,0-24.18-3.33-27.93-5.84-.42-.42-1.67-11.26-1.67-22.1,0-.42,5-.83,5,0,6.67,14.59,16.26,22.93,26.68,22.93,8.75,0,15.01-4.58,15.01-11.67,0-8.34-10.01-12.09-20.01-16.68-12.09-4.59-25.85-10.84-25.85-26.26,0-12.09,10.42-24.6,30.02-24.6,8.34,0,13.76,3.34,17.51,3.34,1.67,0,3.33-1.25,4.58-3.34,0-.42,5-.42,5,0v27.52c0,.42-5,.42-5,0-6.67-12.51-14.59-21.26-24.18-21.26-8.76,0-12.93,5.84-12.93,10.42,0,8.34,9.59,11.67,19.6,15.84,12.09,5,26.27,11.26,26.27,27.1,0,13.34-12.51,24.6-32.1,24.6M660.8,41.27c-1.25,0-1.67-3.34-.42-4.17,8.76-7.92,23.35-21.26,31.27-29.6.42-.42,3.34,0,3.34.83v24.6h28.35c.83,0,.83,7.92,0,7.92h-28.35v46.28c0,10.42,6.25,15.01,12.92,15.01,5,0,10.42-4.17,12.93-9.17,0-.42,3.33,1.25,3.33,1.67-3.33,11.26-14.17,20.01-26.27,20.01-12.93,0-23.35-8.34-23.35-24.6v-48.78h-13.76ZM792.54,54.62c-2.5,0-8.76-7.5-13.34-7.5-2.09,0-4.59,1.25-6.67,3.34-3.34,3.34-6.25,11.26-6.25,17.93v20.01c0,18.34,2.92,18.76,12.51,20.01,0,0,.42,4.17,0,4.17h-44.19c-.42,0-.42-4.17,0-4.17,10.01-1.67,11.26-2.09,11.26-20.01v-30.44c0-17.93-2.08-19.18-12.93-20.84-.83,0-.42-4.17,0-4.17h32.1v20.84h.83c.83-2.5,2.5-5.42,3.75-8.34,5.84-9.59,12.93-15.43,20.43-15.43,7.09,0,12.93,5.42,12.93,11.26.41,6.67-8.34,13.34-10.42,13.34M878.84,65.45l-27.1,69.62c-9.59,24.6-18.34,29.6-30.02,29.6-6.67,0-14.17-3.34-14.17-5.42-.42-3.34,4.17-15.43,6.67-15.43.83,0,10.84,4.58,15.84,4.58,7.09,0,11.67-4.58,15.43-14.59l5-13.34c-1.67-6.67-21.68-50.45-24.18-56.28-5-11.67-8.34-20.84-11.67-24.18-2.08-2.09-4.17-2.92-10.01-3.75-.42,0-.42-4.17,0-4.17,5.42,0,16.68.42,22.93.42s17.09-.42,22.51-.42c.42,0,.42,4.17,0,4.17-12.51,1.67-11.26,5.84-4.59,22.51l14.59,35.44,11.67-30.43c4.17-10.42,6.25-16.68,6.25-20.43,0-4.59-2.92-6.25-11.67-6.67-.42,0-.42-4.59,0-4.59,5.84,0,13.34.42,18.34.42,3.75,0,7.5-.42,14.59-.42.42,0,.83,4.59,0,4.59-4.59.42-6.67,1.67-9.17,4.17-3.34,3.34-5.84,10.01-11.26,24.6h0Z" fill-rule="evenodd"/><path fill="currentColor" d="M124.66,27.52c-14.59-15.84-29.18-13.34-31.68-12.92,1.25.42,2.5,27.93,17.93,42.52,10.42,9.59,31.68,6.25,31.68,6.25,0,0-3.75-20.43-17.93-35.85M142.17,81.3c-4.59,0-23.35,1.67-35.85,17.09-12.92,16.26-12.51,29.18-15.43,32.1,2.5.83,28.77,3.34,40.02-13.76,10.84-15.84,11.26-32.94,11.26-35.44M27.93,70.04c2.92.42,12.92,13.34,30.85,15.01,19.59,2.09,26.26-7.92,26.68-7.92,0-1.25-15.84-18.34-33.35-18.34-12.09.42-24.18,11.25-24.18,11.25M99.22,78.8c-.42.42-16.68,22.1-55.03,16.26C13.34,90.05,2.09,72.96,0,72.54c2.5-3.34,25.85-22.1,52.95-21.68,26.68.83,46.28,15.84,46.28,15.84h17.09c-13.76-4.17-30.43-11.67-37.94-28.35-6.67-15.42-5.42-24.6-8.34-37.52,0,0,30.85-2.5,54.61,12.92,21.68,14.17,33.77,51.7,34.19,52.95h13.34L169.27,0l16.68.42c-2.92,17.51.83,142.58,0,142.58-1.67.42-15.84,1.25-17.09-2.09,0,0,3.34-61.28,3.75-62.54h-12.93c0,.83-1.25,35.44-27.51,53.78-26.27,18.34-64.2,12.92-64.2,12.92,4.59-7.09,0-14.59,13.34-35.02,15.43-23.35,35.85-31.69,35.44-31.69-1.25.42-17.09.42-17.51.42" fill-rule="evenodd"/><path fill="currentColor" d="M915.46,39.8c1.21,0,2.06-.44,2.06-1.49,0-.93-.49-1.53-1.94-1.53h-1.29v3.02h1.17ZM913.01,35.65h2.78c1.57,0,3.1.56,3.1,2.58,0,1.01-.69,1.98-1.61,2.26l1.98,3.46h-1.49l-1.57-3.06h-1.89v3.06h-1.29v-8.3ZM921.83,39.96c0-3.87-2.7-6.73-6.08-6.73s-6.08,2.86-6.08,6.73,2.7,6.61,6.08,6.61,6.09-2.78,6.09-6.61h0ZM908.41,39.96c0-4.71,3.34-7.86,7.33-7.86s7.33,3.14,7.33,7.86-3.3,7.78-7.33,7.78-7.33-3.1-7.33-7.78h0Z" fill-rule="evenodd"/></g></svg>