<svg version="1.1" id="layer" xmlns="http://www.w3.org/2000/svg" xmlns:xlink="http://www.w3.org/1999/xlink" x="0px" y="0px"
	 viewBox="0 0 652 652" style="enable-background:new 0 0 652 652;" xml:space="preserve">
<style type="text/css">
	.st0{fill:currentColor;}
	.st1{fill:rgba(255,255,255,0.15);}
</style>
<g>
	<polygon class="st0" points="299.1,392.6 334.9,392.6 334.9,249.9 299.1,249.9 	"/>
	<path class="st0" d="M423.7,362.6c22.7,0,39.4-19.5,39.4-41.4c0-21.9-16.8-41.2-39.4-41.2c-22.7,0-39.5,19.3-39.5,41.2
		C384.2,343.1,401,362.6,423.7,362.6 M424,245.3c42.9,0,77.4,32.9,77.4,75.6c0,42.9-34.8,76.5-77.8,76.5c-43,0-77.8-33.1-77.8-75.9
		C345.8,278.8,381.1,245.3,424,245.3 M505.5,349.5l32.8-7.7c2.4,17.2,15,23.4,28.2,23.4c13.2,0,18-7.7,18-13.7
		c0-4.8-2.8-9.6-12.4-11.5l-20-3.9c-23.9-4.6-40.9-19.5-40.9-42.4c0-27.3,25.1-46.5,53.5-46.5c36.6,0,51.6,22.6,54.2,41.6l-32.2,9
		c-1.7-11.7-9-20.1-22.2-20.1c-11.4,0-16.9,7.5-16.9,13.3c0,4.8,2.3,10.2,10.8,11.9l20.9,4c27.3,5.2,42.3,21.7,42.3,43.2
		c0,23.4-20.3,45.8-55.1,45.8C529.9,395.6,510.3,376.7,505.5,349.5"/>
	<polygon class="st1" points="60,392.6 21.5,392.6 85.2,249.9 123.9,249.9 	"/>
	<polygon class="st0" points="242.4,319.6 290.2,249.8 246.5,249.8 220.7,292.1 195.5,249.8 151.1,249.8 199.6,319.6 172.6,358.8 
		124,249.9 85.3,249.9 149.2,392.6 190.5,392.6 220.7,347.4 250.5,392.6 292.3,392.6 	"/>
</g>
</svg>
