<?xml version="1.0" encoding="UTF-8"?><svg xmlns="http://www.w3.org/2000/svg" viewBox="0 0 2423.63 380.01"><g><path fill="currentColor" d="M1141.15,201.57c0,45.54,39.04,93.86,164.51,178.44,147.76-118.04,164.51-145.91,164.51-188.67,0-50.18-34.4-77.13-86.46-77.13-29.74,0-49.25,9.3-78.05,30.67-34.4-22.31-51.11-30.67-79.95-30.67-45.54,0-84.56,40.89-84.56,87.36h0Z" fill-rule="evenodd"/><path fill="currentColor" d="M623.51,123.66c-2.36,0-4.7.08-7.72.25-3.01.18-6.69.44-13.11,1.17-6.42.73-15.58,1.92-24.72,3.24l.93-70.63c.14-11.09-.09-22.19-.38-28.9s-.67-9-1.05-10.75c-.99-4.01-1.21-6.46-5.06-9.29-.58-.38-1.27-.7-2.14-1.01s-1.92-.62-4.23-.84c-3.15-.24-6.31-.35-9.47-.32h-40.89c-1.75,0-3.5.13-4.95.36-2.98.64-5.01.82-7.59,3.97-1.57,2.39-1.87,5.39-.8,8.04.19.82,2.14,2.31,3.77,3.79,4.64,5.4,4.44,9.51,5.28,14.46.4,3.42.6,7.79.58,12.14v278.82c-.09,7.08-.21,13.15-1.58,18.91-.69,2.87-1.79,5.98-2.41,8.29-.84,4.03-1.52,6.25.67,9.42,1.26,1.21,2.08,1.35,3.42,1.75.69.18,1.58.36,3.76.49,2.18.14,5.67.19,9.14.19h36.24c4.22,0,8.43-.09,11.22-.26,2.79-.16,4.16-.38,5.21-.6,2.61-.58,5.01-1.1,6.26-4.03.38-1.12.56-2.3.53-3.49.09-1.12,0-2.23-.74-4.63-.73-2.41-2.09-6.11-3.13-9.14-.84-2.35-1.56-4.75-2.17-7.17-.35-1.35-.51-2.75-.48-4.15v-146.87c2.79-2.05,5.76-3.88,8.05-5.02,4.6-2.24,7.11-2.27,10.61-2.41,6.56.03,13.85,1.61,19.71,9.79,1.1,1.52,2.26,3.36,3.49,5.78s2.56,5.47,3.68,8.57l26.95,74.36c6.47,17.86,12.44,35.9,15.94,46.64,3.51,10.73,4.38,14.21,4.86,16.23.82,3.51.56,3.05.42,4.22-.09.45-.23,1.04-.97,2.61s-2.08,4.11-2.98,5.98c-1.37,2.84-1.92,4.11-2.27,5.84-.91,2.52,1.75,5.68,3.92,6.08.64.23,1.4.44,2.49.69,1.09.25,2.5.49,6.12.69,3.61.19,9.42.27,15.21.27h36.25c4.95,0,9.91-.05,12.96-.19,4.66-.25,5.12-.49,7-1.04,1.76-.4,3.53-2.54,3.28-4.34.02-1.01-.06-2.01-.26-3-.18-2.05-3.14-5.6-5.43-9.66-2.92-5.17-5.05-10.96-7.31-17.07l-58.55-160.79c-2.54-7.01-5.52-13.85-8.92-20.48-1.93-3.85-4.32-7.46-7.11-10.75-7.48-8.61-13.53-11.17-20.52-13.46-5.95-1.87-13.48-2.72-21.05-2.72h0ZM1572.37,271.44c0-4.95.05-9.93.27-13.07.06-1.84.33-3.68.8-5.46.64-2.93,2.98-5.91,5.34-7.02.77-.4,1.67-.8,2.89-1.25s2.76-.92,6.99-1.61c4.23-.7,11.14-1.58,18.07-2.28,7.81-.94,15.54-2.4,23.15-4.38,6.06-1.59,11.97-3.69,17.68-6.28,4.89-2.23,9.57-4.88,14.01-7.91,9.93-6.93,18.66-15.51,25.99-25.71s13.24-21.96,17.2-34.84c3.96-12.85,5.98-26.8,6.06-40.66.09-13.63-1.73-27.21-5.4-40.34-3.44-12.31-8.77-24.02-15.81-34.69-6.57-9.95-14.76-18.71-24.24-25.94-12.05-9.17-26.11-15.34-41.01-18.02-3.67-.7-7.25-1.21-17.6-1.53-10.36-.31-27.51-.47-43.64-.45-13.49-.03-26.97.14-40.45.53-9.12.32-12.23.8-14.62,1.23-1.79.31-3.56.73-5.29,1.26-2.71.96-4.38,1.53-6.54,4.11-2.28,3.26-2.18,6.33-1.62,10.44.03,2.28,2.58,5.4,5.14,8.72,4.71,6.3,5.29,10.44,6.36,15.91.83,4.82,1.19,11.09,1.19,17.33v268.59c-.08,7.08-.21,13.15-1.57,18.91-.69,2.87-1.8,5.98-2.41,8.29-.86,4.03-1.52,6.25.66,9.42,1.27,1.21,2.1,1.35,3.45,1.75.69.18,1.57.36,3.75.49,2.18.14,5.65.19,9.14.19h36.25c4.28,0,8.56-.09,11.4-.25,2.81-.16,4.15-.36,5.19-.56,2.56-.56,4.92-1.08,6.08-3.84.74-2.02.69-4.29.26-6.73-.31-1.75-.82-3.45-1.52-5.08-1.04-2.57-2.76-6.37-3.77-8.94-1.78-4.51-1.73-5.78-1.83-8.08v-62.27h0ZM1572.32,66.09c0-5.21.08-10.45.3-13.75.21-3.31.48-4.68.79-5.78.58-2.78,2.23-5.62,4.23-6.82,4.07-2.4,7.39-2.33,12.36-2.45,8.16-.01,16.54,2.53,24.82,8.6,4.07,3,8.05,6.87,11.75,11.71,3.7,4.85,7.15,10.65,10,17.35,2.89,6.71,5.21,14.29,6.78,22.57,1.6,8.29,2.45,17.25,2.39,26.91-.08,9.66-1.12,20.03-3.09,29.09s-4.92,16.85-8.46,23.41c-3.16,6.01-7.29,11.45-12.23,16.1-9.43,8.73-20.34,12.49-31.06,12.49-2,0-4.03-.1-5.65-.27-3.88-.52-6.67-.89-9.57-3.97-1-1.21-1.74-2.61-2.15-4.12-.3-1.01-.66-2.27-.88-5.25s-.32-7.72-.32-12.41v-113.39h0ZM2402.24,218.38c4.25-2.59,8.46-5.27,11.24-7.29,4.81-3.51,6.13-5.24,7.76-7.44,1.57-2.21,2.41-4.86,2.39-7.57-.03-1.35-.27-2.68-.71-3.96-.9-2.67-2.02-5.26-3.37-7.73-1.95-3.67-4.97-8.7-9.14-14.62-4.2-5.93-9.57-12.72-13.88-17.68s-7.52-8.05-11-10.86c-5.29-4.08-11.02-7.55-17.09-10.34-13.35-6.17-28.47-10.03-42.58-10.09-7.34-.07-14.66.51-21.89,1.75-7.17,1.22-14.01,2.98-20.62,5.38s-13,5.4-19.1,9.07-11.96,8-17.51,13.11c-5.58,5.11-10.84,10.99-15.68,17.73s-9.27,14.36-12.97,22.76c-3.72,8.39-6.74,17.6-8.85,27.16-2.1,9.57-3.24,19.52-3.03,30.76s1.8,23.83,4.99,35.63c3.13,11.5,7.85,22.51,14.03,32.71,5.85,9.62,13,18.38,21.26,26.03,7.96,7.36,16.88,13.61,26.52,18.57,9.77,5.03,20.14,8.79,30.86,11.19,16.51,3.58,34.34,5.32,52.14,1.98,5.71-1.09,11.3-2.7,16.72-4.8,4.94-1.9,9.7-4.26,14.21-7.03,4.01-2.45,7.79-5.26,11.3-8.39,14.57-13.45,19.61-27.12,21.79-40.65.56-3.83.83-7.79.83-10.67,0-5.06-.71-7.57-2.89-10.96-6.3-7.98-14.97-8.7-23.46-4.32-.91.6-1.83,1.34-2.84,2.24-1.01.92-2.1,2.04-3.77,4.95s-3.88,7.64-5.88,11.67c-1.62,3.37-3.4,6.67-5.34,9.87-1.18,1.89-2.56,3.65-4.12,5.24-9.46,9.18-17.54,9.61-26.98,9.96-5.77-.1-13.42-2.33-21.18-5.68-3.7-1.61-7.28-3.51-10.69-5.68-2.67-1.68-5.2-3.56-7.57-5.64-10.18-9.35-13.74-18.09-10.41-27.5,1.22-2.89,4.59-6.43,8.05-8.48l98.49-60.41h0ZM2294.47,248.23c-6.16,3.15-11.85,2.1-17.78-.8-3.27-1.83-5.98-4.51-7.85-7.76-1.24-2.07-2.24-4.27-2.98-6.56-1.02-3.07-1.75-6.22-2.18-9.43-1.14-8.3-1.35-20.57,1.32-30.56,1.41-5.56,3.5-10.47,6.08-14.71,2.42-4.05,5.5-7.66,9.12-10.67,3.48-2.87,7.34-5.06,11.48-6.51,8.18-2.91,18.04-2.89,27.43-.35,4.63,1.27,9.04,3.15,13,5.63,3.98,2.48,7.52,5.53,10.39,8.95,5.8,6.96,8.72,14.98,8.69,22.61,0,2.31-.16,4.6-.43,6.47-.71,4.75-2.1,7.94-5.21,11.39-1.01,1.12-2.26,2.28-4.12,3.67s-4.36,3.02-6.96,4.5l-39.99,24.14h0ZM930.25,218.38c3.81-2.32,7.56-4.73,10.16-6.63,4.53-3.33,6.11-5.23,7.73-7.47,1.7-2.4,2.6-5.28,2.57-8.22-.03-1.13-.21-2.24-.53-3.32-.59-2.07-1.36-4.09-2.31-6.02-2.41-5.46-9.22-16.47-16.91-26.24-3.4-4.35-7.01-8.53-10.82-12.52-2.3-2.48-4.83-4.73-7.55-6.73-5.29-4.09-11.03-7.55-17.11-10.34-13.41-6.2-28.49-10.03-42.63-10.09-7.29-.1-14.85.54-22.09,1.76s-14.14,3.01-20.78,5.42c-13.58,4.87-26.03,12.43-36.63,22.22-5.54,5.1-10.76,10.95-15.55,17.66s-9.16,14.28-12.81,22.65c-3.8,8.72-6.73,17.8-8.73,27.11-2.21,10.13-3.21,20.49-3,30.86.22,11.28,1.79,23.86,4.99,35.67,3.12,11.51,7.85,22.52,14.05,32.71,11.5,19,28.03,34.43,47.77,44.6,9.58,4.97,19.88,8.69,30.86,11.19,16.5,3.58,34.33,5.34,52,1.95,5.82-1.14,11.54-2.83,16.78-4.89,4.98-1.95,9.77-4.35,14.32-7.16,4.28-2.66,8.04-5.53,11.35-8.52,14.47-13.42,19.53-27,21.69-40.45.56-3.77.83-7.68.84-10.53,0-4.99-.73-7.54-2.91-10.92-6.29-7.95-14.89-8.74-23.4-4.31-.92.6-1.82,1.32-2.8,2.24-1.51,1.42-2.75,3.09-3.67,4.94-1.6,2.92-3.72,7.63-5.64,11.67-1.55,3.36-3.26,6.65-5.14,9.84-1.14,1.89-2.48,3.65-4.01,5.24-9.4,9.3-17.39,9.62-26.8,9.99-5.94-.12-13.84-2.41-21.85-5.82-3.76-1.64-7.4-3.56-10.88-5.75-2.7-1.68-5.26-3.57-7.65-5.65-10.19-9.29-13.73-17.95-10.4-27.26,1.21-2.89,4.6-6.45,8.04-8.48l99.45-60.4h0ZM821.55,248.23c-6.77,3.19-13.8,2.49-20.54-2.31-2.6-2.08-4.71-4.72-6.17-7.72-1.01-1.99-1.82-4.07-2.44-6.21-1.62-5.29-2.45-12.68-2.44-20-.04-6.16.7-12.3,2.18-18.27,1.45-5.68,3.58-10.71,6.21-15.06,2.65-4.33,5.78-7.98,9.29-10.89,3.5-2.92,7.34-5.1,11.43-6.55,8.08-2.92,17.77-2.84,27.12-.32,4.64,1.27,9.04,3.15,13.01,5.63,3.96,2.48,7.5,5.53,10.36,8.95,5.81,6.96,8.7,14.98,8.68,22.61,0,2.31-.14,4.6-.42,6.47-.73,4.75-2.13,7.94-5.23,11.39-1.01,1.12-2.24,2.28-4.12,3.67s-4.38,3.02-6.98,4.5l-39.93,24.12h0ZM138.51,119.95h-65.98c0-12.59.66-25.2,1.7-34.37.64-6.63,1.94-13.18,3.86-19.56,1.45-4.7,2.97-8.34,4.58-11.45,1.61-3.1,3.29-5.65,5.08-7.87,9.58-11.37,18.75-13.62,28.31-15.25,8.73-1.24,17.62-.88,26.22,1.06,2.7.62,5.43,1.47,8.35,2.52,2.92,1.06,5.98,2.33,10,4.62,4.01,2.28,8.95,5.56,14.1,9.2,5.16,3.63,10.53,7.6,14.11,9.84,6.33,3.86,7.86,3.27,11.01,3.63,3.53.3,8.2-3.26,10.23-6.84,3.97-6.41,5.53-14.15,5.58-21.98-.09-4.68-1.28-11.22-3.1-17.52-.67-2.34-1.49-4.64-2.45-6.89-.6-1.41-1.31-2.78-2.1-4.1-.8-1.4-1.83-2.65-3.06-3.7-.89-.79-2.04-1.23-3.23-1.26H24.21C17.89.32,11.19.5,3.42,6.83.94,9.23.05,11.61.03,13.96c-.13,1.82.1,3.63,1.26,6.56s3.24,6.99,4.66,10.95,2.2,7.82,2.91,12.4,1.32,9.87,1.74,16.32c.43,6.45.61,14.03.61,21.62v246.28c-.12,7.06-.25,13.13-1.89,18.9-.83,2.87-2.15,5.97-2.89,8.29-1.05,4.15-1.85,6.43.92,9.61,1.36,1.05,2.27,1.23,3.72,1.58.74.18,1.69.35,3.9.48s5.73.18,9.23.18h32.53c3.45,0,6.9-.09,9.47-.26,2.57-.17,4.25-.38,5.58-.61,3.13-.69,5.88-.96,7.69-4.05.35-.79.53-1.65.52-2.52.09-.89-.03-1.79-.8-3.81-1.45-3.68-4.51-10.1-5.4-14.72-.87-3.99-1.29-8.06-1.26-12.14v-167.26h67.84c5.58,0,11.15.17,15.42.36s7.21.42,9.73.93c6.59,1.5,10.44,4.46,15.19.43,1.96-2.19,2.31-3.71,3-6.16.77-2.33,1.3-9.71,1.28-16.33,0-3.54-.16-6.48-.42-8.94-.21-2.06-.56-4.1-1.04-6.11-1.14-3.84-1.67-7.47-6.23-10.13-2.24-.97-3.15-.35-5.2.91-10.49,3.45-21.02,2.98-33.59,3.22h0ZM2189.65,168.11c-.21-8.77-3.32-17.44-14.06-26.64-2.89-2.4-6-4.51-9.3-6.3-12.01-6.59-26.07-9.73-39.84-9.73-11.4-.06-22.77,1.19-33.89,3.74-10.82,2.52-20.92,6.25-30.3,11.18-19.13,10.01-35.09,25.16-46.07,43.76-5.88,9.91-10.35,20.59-13.29,31.74-3.08,11.72-4.65,23.77-4.68,35.89-.03,12.17,1.47,24.21,4.33,35.58,2.89,11.35,7.15,21.98,12.49,31.56,5.34,9.55,11.78,18.04,18.95,25.27s15.1,13.23,23.53,18.02c8.41,4.76,17.44,8.34,26.82,10.66,9.26,2.26,18.74,3.46,28.27,3.57,8.41.12,16.81-.72,25.03-2.52,7.74-1.68,15.26-4.22,22.44-7.57,6.67-3.13,12.94-7.07,18.65-11.72,16-13.28,23.02-28.91,23.02-43.23,0-3.71-.69-7.69-2.87-11.3-6.25-9.07-15.17-9.01-23.15-4.29-1.25.89-2.4,1.9-3.45,3.01-1.96,2.19-3.66,4.59-5.07,7.16-2.36,3.99-5.6,10.13-8.08,14.18s-4.2,5.95-5.8,7.56c-8.64,8.7-16.39,10.23-24.32,11.27-8.11.77-20.89.47-31.81-6.45-5.26-3.32-9.8-7.67-13.35-12.79-2.1-2.94-4.12-6.39-6.08-10.58s-3.8-9.14-5.5-15.36c-2.1-7.71-3.56-15.57-4.38-23.51-1.12-9.83-1.75-22-1.83-31.88s.4-17.48,1.22-24.05c.83-6.54,1.97-12.04,3.29-16.76,1.16-4.13,2.63-8.16,4.41-12.06,1.6-3.41,3.29-6.26,5.07-8.74,8.51-11.54,16.93-14.59,25.33-16.23,7.9-1.22,16.08-.97,23.33,2.17,1.44.65,2.84,1.43,4.33,2.39,1.49.95,3.06,2.08,5.42,4.72s5.47,6.8,7.92,9.78c4.41,5.38,6.91,7.35,9.86,8.94,7.2,3.37,14.51,4.72,22.24.26,3.7-2.28,6.3-5.42,8.08-8.65,2.09-3.93,3.07-7.98,3.07-12.01h0ZM482.25,160.75c-.26-8.92-2.49-17.91-14.12-27.13-3.61-2.69-7.56-4.91-11.74-6.6-5.21-2.11-10.62-3.65-16.16-4.59-12.76-2.36-30.32-2.3-47.22,1.13-8.54,1.74-16.85,4.43-24.79,8.03-7.31,3.33-14.19,7.53-20.48,12.53-23.5,19.09-29.32,42.22-22.9,61.33.86,2.71,2,5.59,3.57,8.77,5,9.66,11.39,18.53,18.97,26.33,6.47,6.82,15.95,15.81,26.73,25.62,10.76,9.82,22.81,20.48,29.73,27.29,6.93,6.81,8.7,9.78,10,12.17,4.07,7.11,3.96,11.63,2.15,17.28-.81,2.25-2,4.34-3.51,6.19-1.6,1.94-3.52,3.59-5.67,4.9-6.67,4.19-15.42,4.89-23.44,3.89-2.42-.31-4.82-.74-7.19-1.31-3.25-.73-6.42-1.83-9.43-3.27-4.18-1.93-9.78-5.08-13.77-7.2-2.6-1.46-5.3-2.74-8.08-3.83-4.34-1.47-6.48-.77-9.65,1.06-4.54,2.89-7.9,9.25-8.85,14.92-.26,1.54-.36,3.1-.3,4.66.03,2.15.21,5.23.52,7.57.83,5.15,1.71,7.91,5.29,11.63.86.82,1.85,1.58,3.02,2.3,1.18.73,2.56,1.4,4.32,2.05,1.76.66,3.93,1.3,6.94,1.89,3.02.62,6.89,1.25,14.37,1.73,7.48.47,18.56.8,29.71.71,11.15-.13,22.37-.7,31.66-1.75,9.29-1.04,16.65-2.56,22.85-4.25,6.21-1.7,11.28-3.59,15.62-5.6s7.95-4.14,11.08-6.37c15.29-11.39,18.78-22.45,20.95-33.7.58-3.64.87-7.6.91-10.62.05-6.41-.83-9.66-2.39-14.69-1-2.99-2.22-5.9-3.66-8.7-1.65-3.26-3.83-6.94-6.82-11.53s-6.84-10.06-16.71-20.4c-9.87-10.34-25.78-25.51-37.94-37.33s-20.54-20.26-25.71-26.04-7.08-8.88-8.44-11.35c-3.44-6.32-3.99-9.9-2.7-14.4.77-3.29,4.71-8.27,8.26-9.83,6.34-3.1,12.33-1.93,18.56-.08,2,.62,4.16,1.4,7.82,3.71,3.64,2.3,8.78,6.1,13.32,9.4,4.55,3.29,8.51,6.1,11.57,7.91,5.62,3.27,8.78,3.89,12.72,4.67,5.37.61,11.28,1.41,16.59-3.68,4.14-4.9,4.23-9.36,4.42-15.4h0ZM1858.57,123.66c-3.67-.02-7.34.38-10.92,1.21-3.67.82-7.37,2.05-13.53,5.4s-14.72,8.81-22.9,14.79c-2.98-3.07-6.19-5.94-8.66-7.83s-4.25-2.84-6.06-3.63c-2.37-1.07-4.91-1.72-7.5-1.92-5.28-.52-10.59-.71-15.89-.54h-33.46c-4.12.22-8.4.12-13,5.11-1.18,1.45-1.84,3.25-1.88,5.12,5.37,6.48,5.85,13.61,7.28,21.3.4,2.81.8,5.99,1.17,9.62.35,3.62.69,7.67.93,12.22.58,9.58.86,21.39.86,33.09v110.59c-.1,7.08-.23,13.15-1.6,18.91-.69,2.87-1.8,5.98-2.41,8.29-.83,4.01-1.54,6.17.69,9.26,1.35,1.26,2.23,1.41,3.67,1.84.77.19,1.7.39,4.01.54,2.28.14,5.93.21,9.57.21h35.32c4.36,0,8.72-.1,11.61-.27,2.92-.18,4.33-.4,5.47-.64,2.74-.65,5.16-1.12,6.56-4.19.77-2.18.61-3.88.23-6.26-.32-1.74-.83-3.45-1.52-5.08-1.04-2.57-2.76-6.37-3.77-8.94-1.78-4.51-1.72-5.78-1.85-8.08v-99.44c0-4.12.21-8.26.58-11.88.38-3.61.88-6.73,1.52-9.45s1.35-5.06,2.1-7.08c1.85-4.55,3.4-7.98,7.98-12.19,4.71-3.99,9.35-4.9,13.96-4.93,1.44,0,3.01.1,7.02.71,3.98.61,10.44,1.73,14.44,2.33,4.03.6,5.65.69,7.25.67,6.69-.05,13.35-2.17,20.36-7.65,7.29-5.79,12.52-13.78,14.89-22.79,2-8.38,1.32-16.48-5.05-25.2-2.11-2.73-4.63-5.11-7.47-7.06-5.89-4.03-12.86-6.17-19.99-6.15h0ZM1095.67,123.66c-3.7-.03-7.4.38-11.01,1.21-3.68.82-7.39,2.05-13.53,5.4-6.15,3.35-14.73,8.81-22.9,14.79-2.96-2.87-6.11-5.55-9.43-8-4.08-3.02-8.9-4.88-13.96-5.37-4.89-.44-9.81-.63-14.72-.57h-33.46c-2.89,0-6.03.54-8.94,2.09-4.03,2.2-5.93,5.4-5.94,8.13.13.87,1.97,2.57,3.16,4.55,1.74,3.11,2.41,5.94,3.35,9.49.52,2.08.99,4.46,1.44,7.22s.88,5.9,1.27,9.48c.39,3.57.73,7.6,1.01,12.14.61,9.6.92,21.52.92,33.32v110.59c-.09,7.08-.22,13.15-1.58,18.91-.7,2.87-1.79,5.98-2.41,8.29-.86,4.03-1.53,6.25.66,9.42,1.26,1.21,2.09,1.35,3.42,1.75.7.18,1.58.36,3.76.49,2.18.14,5.67.19,9.14.19h35.32c4.36,0,8.72-.1,11.62-.27,2.91-.18,4.33-.4,5.46-.64,2.75-.65,5.17-1.12,6.56-4.19.77-2.18.6-3.88.23-6.26-.33-1.74-.84-3.45-1.53-5.08-1.02-2.57-2.76-6.37-3.79-8.94-1.75-4.51-1.73-5.78-1.83-8.08l.93-99.44c.04-4.82.26-9.65.71-13.73s1.08-7.41,1.82-10.23c.73-2.83,1.53-5.14,2.39-7.12s1.75-3.62,2.7-5.03c1.6-2.35,3.22-4.27,6.04-6.2,3.85-2.5,7.5-3.2,11.49-3.23,1.5-.01,3.06.1,7.06.71s10.44,1.73,14.46,2.33c4.02.6,5.63.69,7.24.67,6.69-.05,13.35-2.17,20.36-7.65,7.29-5.8,12.51-13.79,14.9-22.79,1.96-8.25,1.39-16.59-4.79-25.25-2.01-2.69-4.45-5.02-7.21-6.93-5.88-4.12-13.31-6.12-20.41-6.17h0ZM231.35,187.79v140.33c-.09,7.08-.21,13.15-1.58,18.91-.69,2.87-1.79,5.98-2.41,8.29-.83,4.16-1.71,6.5,1.01,9.74,1.28,1,2.13,1.17,3.48,1.49.69.17,1.57.32,3.68.44,2.13.12,5.47.17,8.83.17h36.25c3.55,0,7.12-.1,9.71-.26,2.59-.17,4.22-.38,5.47-.62,3.07-.67,5.82-1.06,7.47-4.24.41-1.03.6-2.13.57-3.24.1-1.12,0-2.23-.74-4.63s-2.09-6.11-3.13-9.14c-.84-2.35-1.56-4.75-2.17-7.17-.36-1.35-.52-2.75-.48-4.15v-181.23c0-4.86-.05-9.74-.23-12.75-.27-4.66-.61-5.14-1.28-6.99-.8-1.83-2.4-3.18-4.33-3.67-1.56-.54-5.29-.82-9.03-.75l-39.97.92c-3.28,0-6.58.13-8.88.32-2.44.11-4.84.63-7.11,1.53-2.76.96-4.57,3.6-4.46,6.51-.48,1.66,1.66,4.46,3.24,7.44,3.58,7.24,4.05,12.3,4.97,19.32.78,6.5,1.13,14.99,1.12,23.42h0ZM1906.17,187.79v140.33c-.08,7.08-.21,13.15-1.57,18.91-.71,2.87-1.8,5.98-2.41,8.29-.86,4.03-1.52,6.25.66,9.42,1.27,1.21,2.08,1.35,3.45,1.75.69.18,1.57.36,3.75.49,2.18.14,5.68.19,9.14.19h36.25c3.54,0,7.12-.1,9.7-.26,1.84-.09,3.66-.3,5.47-.62,3.06-.67,5.82-1.06,7.47-4.24.42-1.03.61-2.13.58-3.24.43-2.44-1.65-7.79-3.5-13.11-.91-2.5-1.73-5.04-2.45-7.6-.43-1.42-.62-2.91-.56-4.4v-181.23c0-4.73-.05-9.48-.21-12.39-.27-4.5-.56-4.92-1.19-6.69-.71-1.71-2.19-2.99-3.98-3.45-1.39-.54-5.47-.71-9.49-.71h-39.97c-3.09,0-6.21.1-8.38.27-3.5.29-4.97.65-7.02,1.35-3.01.82-5.34,4.23-5.05,6.74-.48,1.66,1.65,4.31,3.22,7.13,2.1,3.85,2.92,7.03,3.75,11.04.48,2.28.88,4.89,1.22,7.96.75,6.59,1.12,15.37,1.12,24.06h0ZM1935.65,92.05c7.26.04,14.39-1.93,20.6-5.71,3.14-1.88,6.06-4.19,8.53-6.77,12.76-14.27,14.46-30.14,6.16-46.37-7.26-12.62-20.77-20.33-35.33-20.14-4.03.07-8.03.71-11.88,1.91-7.95,2.5-14.87,7.54-19.69,14.34-7.39,10.67-8.92,22.84-5.32,34.99,2.52,8.11,7.56,15.21,14.4,20.25,6.55,4.78,14.42,7.41,22.53,7.5ZM301.05,51.77c-.07-3.93-.67-7.82-1.8-11.58-2.43-7.88-7.34-14.77-14.01-19.62-10.88-7.72-23.23-9.31-35.89-5.59-8.06,2.46-15.11,7.47-20.06,14.29-7.37,10.38-9.07,22.83-5.42,34.72,2.59,8.16,7.72,15.27,14.64,20.31,9.56,7.09,22.53,9.6,33.59,6.41,6.82-1.92,13-5.62,17.91-10.73,7.29-7.56,11.26-17.71,11.04-28.21Z" fill-rule="evenodd"/></g></svg>