<svg viewBox="0 0 1000 409.4" xmlns="http://www.w3.org/2000/svg"><path fill="currentColor" d="m19.5 163.8c11.8-43.1 60.9-53.4 106.2-54.7 37.2-1 78.7 3.9 78.7 3.9l-19.5 71.2s-41.5-4.9-78.7-3.9c-45.2 1.3-94.4 11.5-106.2 54.7z"/><path fill="currentColor" d="m645.6 88c-59.6 0-74.8 57.6-83.4 88.9l-63.6 232.6h37.1l56.4-206.2h38.6l-25.7 93.8h37.1l30.8-112.5h-75.7c3.9-14.2 8-29.3 11.4-41.6 6.2-22.8 16.4-39.3 31.2-38.7 16.3.6 8 11.3 5.8 19.5-3.1 11.3 5.3 22.7 19.9 22.7 31.8 0 39.7-58.4-19.9-58.4zm-210.6 40.7-46.1 168.4h38.7l17.1-62.3h33.6c37.1 0 61.7-20.5 68.4-48.9 6.2-26.6-9.3-57.1-50.9-57.1h-60.8zm33.3 19.8h14.9c15.6 0 27.9 12.5 25 34.2-2.8 20.1-24.6 32.2-43.7 32.2h-14.3l18.1-66.3zm367 32.6c-32.5 0-56 28-61.6 56-5.4 26.9 10 62.6 52.4 62.6s45.3-13.3 45.3-13.3l-6.9-17.1s-12.7 10.3-30.4 10.3-28.8-13.9-26.3-36.2h72.2c5.2-13.1 8-62.3-44.7-62.3zm143.8 1.5c-24.2 0-38.5 25-38.5 25l6.3-23.1h-37.1l-30.8 112.5h37.1s8.9-32.9 13.5-49.3c7-25.7 21.3-41.7 28.2-42.4 8-.8 7.2 18.4 22.7 18.4 23.5 0 28.6-41.2-1.5-41.2zm-292.2 1.9-5.1 18.7h47.1l-74 93.8h104.5l5.1-18.7h-53.1l74-93.8zm148.2 15.2c20.2 0 15.6 26.7 15.6 26.7h-40.4s6.7-26.7 24.8-26.7z"/><path fill="currentColor" d="m301.8 297.3c-133.1-8.3-287.8-77-282.3-133.5l-18.4 67.2c-5.6 57.7 137.9 126.1 281.2 137.6l19.5-71.2z"/><path fill="currentColor" d="m350.2 204.7c-11.8 43.1-60.9 53.4-106.2 54.7-37.2 1-78.7-3.9-78.7-3.9l19.5-71.2s41.5 4.9 78.7 3.9c45.2-1.3 94.4-11.5 106.2-54.7z"/><path fill="currentColor" d="m67.9 71.2c133.1 8.3 287.8 77 282.4 133.5l18.4-67.2c5.5-57.6-138-126-281.4-137.5l-19.5 71.2z"/></svg>