<?xml version="1.0" encoding="UTF-8"?><svg xmlns="http://www.w3.org/2000/svg" xmlns:xlink="http://www.w3.org/1999/xlink" viewBox="0 0 7051.4 1080"><defs><clipPath id="uuid-b3d3429a-c6f6-4705-af23-54305959bc54"><rect x="-540.04" y="-540.14" width="8131.95" height="2160.17" fill="currentColor"/></clipPath></defs><g><g><g clip-path="url(#uuid-b3d3429a-c6f6-4705-af23-54305959bc54)"><g><g><path fill="currentColor" d="M6694.82,474.35v147.02h103.32v145.87c.32,13.03-.39,27.09-2.63,38.34-4.1,27.21-29.95,73.54-103.29,73.54s-98.28-46.33-102.69-73.54c-1.85-11.25-2.64-25.31-2.64-38.34v-460.72c0-16.3,1.1-34.13,4.56-47.63,5.01-24.55,26.77-72.98,100.23-72.98,77.11,0,96.36,51.05,100.77,72.98,2.9,14.52,3.07,38.88,3.07,38.88v55.94h253.87v-33.07s1.15-34.51-1.93-66.71c-19.08-189.1-174.89-248.93-353.54-248.93s-331.63,60.38-353.86,248.93c-2.01,17.24-5.07,48.26-5.07,66.71v423.81c0,18.46.6,32.75,4.01,66.48,16.57,183.9,175.95,249.08,354.21,249.08s337.65-65.19,354.5-249.08c2.99-33.73,3.3-48.02,3.7-66.48v-270.1h-356.58ZM4944.33,32.11h-254.95v745.75c.4,13,0,27.6-2.24,38.3-5.32,25.03-26.54,73.21-96.87,73.21s-91.2-48.18-96.12-73.21c-2.55-10.7-2.87-25.31-2.55-38.3V32.11h-254.87v722.6c-.32,18.63,1.14,56.68,2.24,66.65,17.59,188.3,165.99,249.43,351.3,249.43s333.98-61.13,351.9-249.43c1.41-9.97,3.26-48.02,2.16-66.65V32.11ZM2601.84,32.11l-127.18,787.98-127.1-787.98h-411.25l-21.81,1008.06h251.94l6.82-933.19,173.35,933.19h255.62l173.5-933.19,6.85,933.19h252.58l-22.55-1008.06h-410.78ZM1079.22,32.11l-186.73,1008.06h272.3l140.71-933.19,137.34,933.19h270.41L1527.31,32.11h-448.08ZM5835.32,843.72l-237.39-811.61h-374.08v997.55h247.46l-14.37-837.57,254.95,837.57h358.77V32.11h-249.08l13.75,811.61ZM3546.32,294.46c-4.48-19.91-3.18-41.06-.87-52.11,7.21-32.27,28.89-67.46,91.36-67.46,58.22,0,92.36,36.3,92.36,90.76v61.64h248.53v-70.26c0-217.2-194.73-251.32-335.72-251.32-177.57,0-322.58,58.53-349.06,221.96-7,44.48-8.74,83.96,2.41,134.33,43.18,203.78,397.94,262.89,449.43,391.76,9.09,24.41,6.49,55.54,1.85,73.88-7.71,33.54-30.28,67.27-97.16,67.27-62.73,0-100.48-36.06-100.48-90.41l-.08-96.74h-267.5v76.9c0,222.83,174.54,290.06,362.52,290.06s328.74-61.52,352.6-228.29c11.38-86.17,2.8-142.29-1.77-163.43-41.68-209.01-419.79-271.88-448.41-388.54M267.94,291.99c-4.88-20.32-3.74-41.77-1.02-52.95,6.89-32.11,28.7-67.93,92.27-67.93,58.96,0,93.68,36.64,93.68,91.55v62.39h251.44v-70.82C704.3,34.95,506.59,0,364.06,0,185.01,0,38.7,59.44,11.93,224.05c-7.33,45.19-8.58,84.94,2.01,135.87,43.65,206.1,401.91,265.69,454.04,396.1,9.76,24.24,6.81,55.37,1.97,74.43-8.27,33.89-31.01,68.1-98.45,68.1-62.97,0-100.64-36.68-100.64-91.79l-.35-97H0v77.08C0,1012.22,177.01,1080,366.46,1080s331.7-62.07,356.1-230.77c12.13-86.96,3.03-143.55-1.06-165.01-42.55-211.57-424.86-274.23-453.56-392.23"/></g></g></g></g></g></svg>